#!OML:ASF H:\Terrain\Patient Classification 1\Walking\liu\liu.ASF
:FULLY-SPECIFIED
:DEGREES
80
root 9.22839 16.6626 -15.6355 6.24041 -2.99373 3.13096
lowerback -4.19285 1.84959 -6.30126
upperback -1.47346 2.71998 -0.34594
thorax 0.552144 1.37541 3.29129
lowerneck -22.6019 -4.54692 -13.4896
upperneck 21.3439 -5.25831 13.5834
head 11.4372 -1.83158 6.48967
rclavicle 3.22559e-015 7.77745e-015
rhumerus -29.4841 17.6259 -88.3785
rradius 39.3782
rwrist -19.3167
rhand -28.9929 -30.9114
rfingers 7.12502
rthumb -2.34486 -60.8782
lclavicle 3.22559e-015 7.77745e-015
lhumerus -50.4358 20.0879 62.5722
lradius 8.74058
lwrist -29.8253
lhand -11.7462 -21.4464
lfingers 7.12502
lthumb 14.3016 8.04104
rfemur -3.50878 -6.88023 16.145
rtibia 56.4236
rfoot 16.3996 -12.9123
rtoes -2.18844
lfemur -26.623 9.79302 -29.6604
ltibia 22.5419
lfoot -3.63554 -1.37676
ltoes -3.20016
81
root 9.2466 16.7086 -15.4517 6.21412 -2.97839 3.07281
lowerback -4.22419 1.71413 -6.17323
upperback -1.44218 2.53695 -0.237816
thorax 0.621697 1.28121 3.32691
lowerneck -22.1696 -4.37813 -13.4361
upperneck 21.2735 -5.03129 13.3809
head 11.2816 -1.76139 6.43028
rclavicle 1.49244e-014 -1.80894e-014
rhumerus -29.5349 17.3852 -88.3892
rradius 38.4517
rwrist -18.8259
rhand -27.4883 -30.7289
rfingers 7.12502
rthumb -0.89166 -60.7068
lclavicle 1.49244e-014 -1.80894e-014
lhumerus -49.5558 21.169 62.8348
lradius 8.87864
lwrist -30.833
lhand -11.8572 -22.0247
lfingers 7.12502
lthumb 14.1946 7.47026
rfemur -5.29807 -7.15591 16.3651
rtibia 58.7834
rfoot 14.4986 -14.4827
rtoes -0.817864
lfemur -25.3152 10.0861 -29.5965
ltibia 21.6118
lfoot -4.11411 -1.72467
ltoes -3.83668
82
root 9.2645 16.7552 -15.2703 6.18182 -2.88381 2.46446
lowerback -4.10519 1.6805 -5.35577
upperback -1.4536 2.44998 -0.0908779
thorax 0.581845 1.23785 3.01373
lowerneck -22.0525 -4.37451 -13.2637
upperneck 21.4451 -5.02144 13.0258
head 11.3048 -1.78939 6.26882
rclavicle 2.23477e-014 1.83876e-015
rhumerus -29.7259 17.395 -88.5836
rradius 37.3828
rwrist -18.8649
rhand -26.7931 -28.3597
rfingers 7.12502
rthumb -0.220282 -58.3393
lclavicle 2.23477e-014 1.83876e-015
lhumerus -48.544 21.9268 63.0871
lradius 9.09163
lwrist -32.0024
lhand -11.9925 -22.7872
lfingers 7.12502
lthumb 14.0642 6.71692
rfemur -7.01117 -7.51711 17.2997
rtibia 60.6581
rfoot 13.0899 -15.3791
rtoes -2.69729
lfemur -24.1424 10.2575 -28.8568
ltibia 20.878
lfoot -4.4003 -1.96145
ltoes -3.73641
83
root 9.28197 16.7995 -15.0907 6.11747 -2.68889 1.98926
lowerback -3.95032 1.64292 -4.65975
upperback -1.54079 2.36121 0.0134985
thorax 0.438644 1.19712 2.7213
lowerneck -21.948 -4.32206 -13.091
upperneck 21.6759 -4.97069 12.7677
head 11.3495 -1.78716 6.15565
rclavicle 2.92291e-014 -7.8023e-015
rhumerus -30.2603 17.1804 -88.8246
rradius 36.5848
rwrist -18.6249
rhand -26.517 -27.7771
rfingers 7.12502
rthumb 0.0464094 -57.7569
lclavicle 2.92291e-014 -7.8023e-015
lhumerus -47.7191 22.4484 63.2892
lradius 9.47964
lwrist -33.0335
lhand -12.1039 -23.3446
lfingers 7.12502
lthumb 13.9569 6.16691
rfemur -8.60122 -8.05217 18.0841
rtibia 62.197
rfoot 11.9724 -15.7626
rtoes -5.38549
lfemur -23.0351 10.284 -28.2478
ltibia 20.3171
lfoot -4.60099 -2.08562
ltoes -1.87248
84
root 9.29914 16.8476 -14.9124 6.11082 -2.53584 2.00177
lowerback -3.93072 1.48127 -4.5165
upperback -1.60397 2.1379 0.0179618
thorax 0.386151 1.08728 2.63592
lowerneck -21.9409 -4.13718 -12.9381
upperneck 21.9745 -4.78272 12.7517
head 11.4254 -1.69294 6.16833
rclavicle 4.41364e-015 6.4605e-016
rhumerus -30.7822 16.7 -89.0359
rradius 35.9778
rwrist -17.7722
rhand -26.3807 -27.6246
rfingers 7.12502
rthumb 0.178087 -57.6043
lclavicle 4.41364e-015 6.4605e-016
lhumerus -46.9731 23.2682 63.3782
lradius 9.94193
lwrist -34.0602
lhand -12.1995 -23.6126
lfingers 7.12502
lthumb 13.8647 5.90521
rfemur -10.2454 -8.31544 18.3221
rtibia 63.6132
rfoot 10.4767 -15.876
rtoes -7.34906
lfemur -21.9054 9.97598 -28.1708
ltibia 19.7339
lfoot -5.19595 -1.86248
ltoes -1.9989
85
root 9.31424 16.8833 -14.7343 6.15306 -2.38934 2.14746
lowerback -3.99053 1.27763 -4.51494
upperback -1.63095 1.86916 -0.00972526
thorax 0.41396 0.952628 2.59815
lowerneck -21.7886 -3.98493 -12.9873
upperneck 22.1457 -4.63596 12.9478
head 11.4437 -1.61296 6.28596
rclavicle 7.85976e-015 -6.26172e-015
rhumerus -31.2056 16.2182 -89.2133
rradius 35.4089
rwrist -16.8635
rhand -26.3707 -27.8181
rfingers 7.12502
rthumb 0.187749 -57.7977
lclavicle 7.85976e-015 -6.26172e-015
lhumerus -46.3995 24.1317 63.368
lradius 10.7763
lwrist -35.0667
lhand -12.3268 -23.8859
lfingers 7.12502
lthumb 13.742 5.64034
rfemur -11.9582 -8.21763 18.503
rtibia 64.9679
rfoot 9.05871 -15.9968
rtoes -8.19041
lfemur -20.7636 9.48478 -28.2203
ltibia 18.9993
lfoot -5.82654 -1.49231
ltoes -2.71602
86
root 9.32941 16.9043 -14.5583 6.09598 -2.0746 2.04495
lowerback -4.0056 1.08636 -4.322
upperback -1.60666 1.60745 0.135967
thorax 0.46922 0.819961 2.63092
lowerneck -21.6433 -3.87099 -13.0361
upperneck 22.3365 -4.45462 12.8187
head 11.4556 -1.55647 6.28128
rclavicle -3.17062e-014 -2.78299e-015
rhumerus -31.6007 16.0173 -89.1937
rradius 34.8142
rwrist -16.2432
rhand -25.5144 -29.6618
rfingers 7.12502
rthumb 1.01472 -59.6391
lclavicle -3.17062e-014 -2.78299e-015
lhumerus -44.5499 22.6927 66.2752
lradius 11.2083
lwrist -32.4541
lhand -13.1475 -24.3182
lfingers 7.12502
lthumb 12.951 5.25984
rfemur -13.5435 -8.13203 18.9944
rtibia 66.1861
rfoot 7.87554 -16.4611
rtoes -6.1995
lfemur -19.4925 9.25923 -28.0356
ltibia 18.0573
lfoot -6.10062 -1.50917
ltoes -3.03763
87
root 9.34256 16.9291 -14.3863 5.99073 -1.80423 1.7137
lowerback -3.9882 0.919788 -3.99747
upperback -1.58518 1.37101 0.39444
thorax 0.501582 0.700447 2.70568
lowerneck -21.5876 -3.636 -12.7367
upperneck 22.6213 -4.10627 12.2891
head 11.4756 -1.44019 6.08984
rclavicle 3.7707e-015 7.15625e-015
rhumerus -32.0989 16.0947 -89.1532
rradius 34.2701
rwrist -15.7813
rhand -24.2928 -30.2255
rfingers 7.12502
rthumb 2.1946 -60.194
lclavicle 3.7707e-015 7.15625e-015
lhumerus -42.625 21.3344 69.0508
lradius 11.3352
lwrist -30.1195
lhand -13.4572 -25.2482
lfingers 7.12502
lthumb 12.6525 4.34854
rfemur -15.0586 -8.07651 19.7086
rtibia 67.1598
rfoot 6.71525 -16.8914
rtoes -3.84607
lfemur -18.0883 9.04077 -27.582
ltibia 16.8728
lfoot -5.98941 -1.40928
ltoes -4.36417
88
root 9.35487 16.9528 -14.2071 5.90814 -1.61121 1.6329
lowerback -4.05721 0.751622 -3.94483
upperback -1.54981 1.14722 0.549761
thorax 0.591398 0.586396 2.82887
lowerneck -21.3474 -3.45022 -12.6618
upperneck 22.7122 -3.87926 12.2011
head 11.4238 -1.3487 6.08049
rclavicle 6.96368e-015 4.17448e-015
rhumerus -32.6814 16.2537 -89.1792
rradius 33.856
rwrist -15.39
rhand -24.3036 -28.6021
rfingers 7.12502
rthumb 2.18417 -58.5707
lclavicle 6.96368e-015 4.17448e-015
lhumerus -40.6618 19.1713 72.1113
lradius 11.9363
lwrist -27.8013
lhand -13.34 -25.2777
lfingers 7.12502
lthumb 12.7654 4.31201
rfemur -16.5218 -8.06889 20.052
rtibia 67.8923
rfoot 4.60276 -16.8717
rtoes -6.08565
lfemur -16.6653 8.68124 -27.4233
ltibia 15.6589
lfoot -5.77541 -1.01331
ltoes -5.89744
89
root 9.37206 16.9759 -14.0174 5.78127 -1.34075 1.93598
lowerback -4.12997 0.575154 -4.16276
upperback -1.46256 0.92548 0.538714
thorax 0.735475 0.471445 2.93262
lowerneck -21.2245 -3.43553 -12.7951
upperneck 22.9676 -3.88855 12.3484
head 11.5038 -1.35304 6.17218
rclavicle -4.11546e-015 5.76476e-015
rhumerus -33.227 16.1986 -89.1743
rradius 33.5977
rwrist -14.9896
rhand -24.5248 -27.5726
rfingers 7.12502
rthumb 1.97054 -57.5432
lclavicle -4.11546e-015 5.76476e-015
lhumerus -38.6667 16.4702 75.1207
lradius 12.6493
lwrist -24.918
lhand -13.5109 -24.8151
lfingers 7.12502
lthumb 12.6007 4.78489
rfemur -17.8545 -8.20194 19.8614
rtibia 68.4335
rfoot 2.75172 -16.9711
rtoes -5.22375
lfemur -15.1667 8.24705 -27.7297
ltibia 14.5119
lfoot -5.87082 -0.626547
ltoes -6.55935
90
root 9.39172 16.9964 -13.8237 5.7082 -1.03307 2.05761
lowerback -4.28592 0.421551 -4.05929
upperback -1.40163 0.725423 0.479184
thorax 0.903912 0.366494 2.80649
lowerneck -21.2243 -3.35667 -12.3645
upperneck 23.3274 -3.85159 11.9849
head 11.6162 -1.34516 5.97747
rclavicle 1.59742e-014 5.36719e-015
rhumerus -33.7421 15.9036 -89.2475
rradius 33.3449
rwrist -14.5604
rhand -23.6934 -28.867
rfingers 7.12502
rthumb 2.77347 -58.8287
lclavicle 1.59742e-014 5.36719e-015
lhumerus -36.9978 13.8042 77.6369
lradius 13.6091
lwrist -21.887
lhand -13.2666 -24.3491
lfingers 7.12502
lthumb 12.8362 5.23626
rfemur -19.1335 -8.31379 19.8873
rtibia 68.707
rfoot 0.937596 -16.9315
rtoes -3.22462
lfemur -13.6962 7.50771 -27.7722
ltibia 13.4158
lfoot -6.35113 -0.190079
ltoes -6.57893
91
root 9.40978 17.0085 -13.6349 5.8035 -0.610342 1.99229
lowerback -4.56362 0.222964 -3.7913
upperback -1.44095 0.460258 0.491274
thorax 1.04182 0.231608 2.65756
lowerneck -20.9853 -3.25043 -11.9919
upperneck 23.485 -3.79361 11.7157
head 11.6058 -1.32551 5.82058
rclavicle 1.24955e-014 -3.18055e-015
rhumerus -34.4499 15.9931 -89.5158
rradius 33.0522
rwrist -14.8676
rhand -22.9496 -30.3973
rfingers 7.12502
rthumb 3.49179 -60.3485
lclavicle 1.24955e-014 -3.18055e-015
lhumerus -35.5971 11.8317 79.5057
lradius 14.5612
lwrist -19.7872
lhand -14.0845 -25.212
lfingers 7.12502
lthumb 12.0476 4.42126
rfemur -20.6122 -8.45656 20.179
rtibia 68.7838
rfoot -0.930243 -16.4452
rtoes -3.77351
lfemur -12.6543 6.65301 -27.628
ltibia 12.7159
lfoot -7.00706 0.239796
ltoes -7.41114
92
root 9.41897 17.0173 -13.4606 5.87458 -0.0490904 1.7337
lowerback -4.61506 0.0126419 -3.46456
upperback -1.53483 0.163881 0.649582
thorax 0.996707 0.0858193 2.62123
lowerneck -20.6279 -3.25326 -12.3343
upperneck 23.5922 -3.82887 12.0621
head 11.5962 -1.34117 6.01314
rclavicle 5.09386e-015 1.64991e-014
rhumerus -35.3274 16.3722 -89.8001
rradius 32.8847
rwrist -15.5844
rhand -24.4256 -30.6733
rfingers 7.12502
rthumb 2.06634 -60.643
lclavicle 5.09386e-015 1.64991e-014
lhumerus -34.0853 9.96909 81.2442
lradius 15.1011
lwrist -17.938
lhand -16.6552 -27.6434
lfingers 7.12502
lthumb 9.56801 2.11936
rfemur -22.1502 -8.55111 20.7791
rtibia 68.6791
rfoot -2.81792 -15.7894
rtoes -6.19835
lfemur -11.9723 5.91891 -27.2804
ltibia 12.583
lfoot -7.6468 0.652334
ltoes -7.98959
93
root 9.42009 17.0138 -13.2941 5.86797 0.531119 1.46891
lowerback -4.54115 -0.264959 -3.28913
upperback -1.58109 -0.219376 0.844083
thorax 0.935282 -0.103852 2.70245
lowerneck -20.5572 -3.12953 -12.3651
upperneck 23.8459 -3.68009 12.1017
head 11.6572 -1.27638 6.07029
rclavicle -4.25523e-016 -5.96354e-016
rhumerus -35.9226 16.4353 -89.785
rradius 32.7954
rwrist -15.0713
rhand -26.2152 -31.3341
rfingers 7.12502
rthumb 0.337885 -61.3135
lclavicle -4.25523e-016 -5.96354e-016
lhumerus -32.5317 8.7113 82.4971
lradius 15.463
lwrist -16.869
lhand -18.0677 -28.632
lfingers 7.12502
lthumb 8.205 1.18873
rfemur -23.5556 -8.6003 21.4256
rtibia 68.4015
rfoot -4.76845 -15.0609
rtoes -7.70117
lfemur -11.34 5.38668 -26.8939
ltibia 12.6348
lfoot -8.12389 0.827145
ltoes -7.55145
94
root 9.42718 17.001 -13.1222 5.87174 1.08745 1.56712
lowerback -4.4915 -0.598777 -3.47657
upperback -1.65521 -0.659916 0.952841
thorax 0.865643 -0.32126 2.89716
lowerneck -20.4496 -2.91309 -11.9232
upperneck 24.169 -3.40873 11.5807
head 11.6986 -1.18252 5.84491
rclavicle -1.42255e-015 -1.19271e-015
rhumerus -36.5024 16.405 -89.6934
rradius 32.6162
rwrist -14.2513
rhand -26.3874 -31.1851
rfingers 7.12502
rthumb 0.171547 -61.1648
lclavicle -1.42255e-015 -1.19271e-015
lhumerus -31.0876 6.75227 83.9333
lradius 15.9446
lwrist -14.864
lhand -17.8917 -27.8178
lfingers 7.12502
lthumb 8.37482 1.99613
rfemur -24.8908 -8.86557 21.5384
rtibia 68.0102
rfoot -6.39179 -13.9879
rtoes -7.77311
lfemur -10.7798 4.92106 -26.9168
ltibia 12.8764
lfoot -8.51567 0.825013
ltoes -6.51094
